Coordinates
version=1
nRows=65
nColumns=12
inDegrees=yes

Units are S.I. units (second, meters, Newtons, ...)
Angles are in degrees

endheader
time	SC_y	SC_z	SC_x	AC_y	AC_z	AC_x	GH_y	GH_z	GH_yy	EL_x	PS_y
       0.0              -36.99         -2.477          8.838          35.53         -6.466          11.29          86.99          64.12          91.03          47.53          93.03
   0.02839              -36.99         -2.474          8.848          35.53         -6.467          11.28          86.98          64.11          91.01          47.54          93.04
   0.05679               -37.0         -2.471          8.859          35.54         -6.468          11.28          86.98           64.1          90.99          47.55          93.05
   0.08518               -37.0         -2.468          8.871          35.54         -6.469          11.27          86.97          64.09          90.98          47.56          93.06
    0.1136               -37.0         -2.464          8.883          35.54          -6.47          11.27          86.96          64.08          90.96          47.57          93.07
     0.142               -37.0         -2.461          8.896          35.55         -6.471          11.26          86.95          64.06          90.94          47.58          93.08
    0.1704               -37.0         -2.457           8.91          35.55         -6.473          11.26          86.94          64.05          90.91          47.59           93.1
    0.1988              -37.01         -2.453          8.925          35.55         -6.474          11.25          86.93          64.03          90.89           47.6          93.11
    0.2272              -37.01         -2.448          8.941          35.56         -6.475          11.25          86.92          64.02          90.86          47.62          93.13
    0.2556              -37.01         -2.443          8.958          35.56         -6.477          11.24          86.91           64.0          90.84          47.63          93.14
    0.2839              -37.01         -2.438          8.976          35.57         -6.478          11.23           86.9          63.98          90.81          47.65          93.16
    0.3123              -37.02         -2.432          8.996          35.57          -6.48          11.22          86.89          63.96          90.78          47.67          93.18
    0.3407              -37.02         -2.426          9.017          35.58         -6.482          11.22          86.87          63.94          90.74          47.68           93.2
    0.3691              -37.02          -2.42           9.04          35.59         -6.484          11.21          86.86          63.92          90.71           47.7          93.22
    0.3975              -37.03         -2.413          9.065          35.59         -6.486           11.2          86.84          63.89          90.67          47.73          93.24
    0.4259              -37.03         -2.405          9.092           35.6         -6.488          11.19          86.83          63.87          90.62          47.75          93.27
    0.4543              -37.04         -2.397          9.121          35.61         -6.491          11.17          86.81          63.84          90.58          47.77           93.3
    0.4827              -37.04         -2.388          9.153          35.62         -6.494          11.16          86.79           63.8          90.53           47.8          93.33
    0.5111              -37.05         -2.378          9.188          35.63         -6.497          11.15          86.76          63.77          90.47          47.83          93.36
    0.5395              -37.05         -2.367          9.226          35.64           -6.5          11.13          86.74          63.73          90.41          47.87          93.39
    0.5679              -37.06         -2.355          9.268          35.65         -6.503          11.11          86.71          63.69          90.35           47.9          93.43
    0.5963              -37.07         -2.342          9.315          35.66         -6.507           11.1          86.68          63.64          90.27          47.94          93.48
    0.6247              -37.07         -2.328          9.366          35.68         -6.512          11.08          86.65          63.59          90.19          47.99          93.52
    0.6531              -37.08         -2.312          9.422          35.69         -6.517          11.05          86.61          63.53           90.1          48.04          93.58
    0.6815              -37.09         -2.294          9.485          35.71         -6.522          11.03          86.57          63.47           90.0          48.09          93.63
    0.7099               -37.1         -2.274          9.555          35.73         -6.528           11.0          86.53           63.4          89.89          48.15           93.7
    0.7383              -37.11         -2.252          9.634          35.75         -6.535          10.97          86.48          63.32          89.77          48.22          93.77
    0.7667              -37.13         -2.227          9.722          35.78         -6.542          10.93          86.42          63.23          89.63           48.3          93.86
     0.795              -37.14         -2.199          9.822          35.81         -6.551          10.89          86.35          63.13          89.47          48.38          93.95
    0.8234              -37.16         -2.167          9.935          35.84         -6.561          10.85          86.28          63.02          89.29          48.48          94.06
    0.8518              -37.18          -2.13          10.06          35.88         -6.572          10.79           86.2          62.89          89.09          48.59          94.18
    0.8802               -37.2         -2.088          10.21          35.92         -6.585          10.73           86.1          62.74          88.85          48.72          94.31
    0.9086              -37.23          -2.04          10.38          35.97         -6.599          10.66          85.99          62.57          88.58          48.87          94.47
     0.937              -37.26         -1.983          10.58          36.02         -6.617          10.58          85.86          62.37          88.26          49.05          94.66
    0.9654              -37.29         -1.917          10.82          36.09         -6.637          10.49          85.71          62.13          87.89          49.25          94.88
    0.9938              -37.34         -1.839          11.09          36.16          -6.66          10.38          85.53          61.86          87.46          49.49          95.14
     1.022              -37.39         -1.747          11.42          36.26         -6.688          10.25          85.32          61.53          86.94          49.77          95.44
     1.051              -37.45         -1.636          11.81          36.37         -6.722          10.09          85.07          61.14          86.32          50.11          95.81
     1.079              -37.52         -1.502          12.28           36.5         -6.763            9.9          84.76          60.66          85.57          50.52          96.25
     1.107              -37.61         -1.339          12.86          36.66         -6.812          9.667          84.39          60.08          84.66          51.03          96.79
     1.136              -37.71         -1.137          13.58          36.87         -6.874           9.38          83.93          59.36          83.53          51.65          97.45
     1.164              -37.85        -0.8848          14.47          37.12          -6.95          9.021          83.35          58.47          82.12          52.42          98.29
     1.193              -38.02        -0.5675          15.59          37.43         -7.047          8.569          82.62          57.34          80.34           53.4          99.33
     1.221              -38.24        -0.1642          17.01          37.83         -7.169          7.995           81.7          55.91          78.08          54.63          100.7
     1.249              -38.52         0.3521          18.84          38.35         -7.326           7.26          80.52          54.08           75.2          56.22          102.4
     1.278              -38.87          1.015          21.18          39.01         -7.527          6.317          79.01          51.73          71.49          58.26          104.6
     1.306              -39.33          1.861          24.17          39.85         -7.784          5.112          77.07          48.72          66.75          60.86          107.3
     1.335               -39.9          2.925          27.94          40.91         -8.108          3.598          74.64          44.95           60.8          64.13          110.9
     1.363               -40.6          4.222          32.52          42.21         -8.502          1.752          71.67          40.34          53.54          68.11          115.1
     1.391              -41.41          5.725          37.83           43.7         -8.958        -0.3881          68.24          35.01          45.13          72.73          120.1
      1.42              -42.28          7.353          43.59          45.33         -9.453         -2.705          64.52          29.23          36.02          77.73          125.5
     1.448              -43.16           8.98          49.34          46.95         -9.947         -5.022          60.79          23.45          26.92          82.73          130.8
     1.477              -43.97          10.48          54.65          48.45          -10.4         -7.161          57.36          18.12          18.51          87.35          135.8
     1.505              -44.67          11.78          59.24          49.74          -10.8         -9.007          54.39          13.52          11.25          91.33          140.1
     1.533              -45.24          12.84           63.0           50.8         -11.12         -10.52          51.96          9.738          5.295           94.6          143.6
     1.562               -45.7          13.69          65.99          51.64         -11.38         -11.73          50.02          6.734         0.5597           97.2          146.4
      1.59              -46.05          14.35          68.33           52.3         -11.58         -12.67          48.51          4.383         -3.148          99.24          148.6
     1.618              -46.33          14.87          70.16          52.82         -11.74          -13.4          47.33           2.55         -6.037          100.8          150.3
     1.647              -46.55          15.27          71.59          53.22         -11.86         -13.98          46.41          1.118         -8.294          102.1          151.6
     1.675              -46.72          15.59          72.71          53.54         -11.96         -14.43          45.68      -0.008105         -10.07          103.0          152.7
     1.704              -46.85          15.84           73.6          53.79         -12.03         -14.79           45.1        -0.9022         -11.48          103.8          153.5
     1.732              -46.96          16.04          74.31          53.99         -12.09         -15.08          44.64         -1.619         -12.61          104.4          154.2
      1.76              -47.05          16.21          74.89          54.15         -12.14         -15.31          44.27           -2.2         -13.52          104.9          154.7
     1.789              -47.12          16.34          75.36          54.28         -12.18          -15.5          43.96         -2.676         -14.27          105.3          155.1
     1.817              -47.18          16.45          75.76           54.4         -12.22         -15.66          43.71         -3.069         -14.89          105.7          155.5
